@startuml
hide circle
hide methods
hide stereotype
show <<Enumeration>> stereotype
skinparam class {
   BackgroundColor<<Enumeration>> #E6F5F7
   BackgroundColor<<Ref>> #FFFFE0
   BackgroundColor<<Pivot>> #FFFFFFF
   BackgroundColor<<SimpleType>> #E2F0DA
   BackgroundColor #FCF2E3
}

class Quote <<Pivot>> {
    category : String
    description : String
    effectiveQuoteCompletionDate : DateTime
    expectedFulfillmentStartDate : DateTime
    expectedQuoteCompletionDate : DateTime
    externalId : String
    href : String
    id : String
    instantSyncQuote : Boolean
    quoteDate : DateTime
    requestedQuoteCompletionDate : DateTime
    state : QuoteStateType
    validFor : TimePeriod
    version : String
    @baseType : String
    @schemaLocation : Uri
    @type : String
}

class Note  {
    author : String
    date : DateTime
    id : String
    text : String
    @baseType : String
    @schemaLocation : Uri
    @type : String
}

class ContactMedium  {
    href : Uri
    id : String
    mediumType : String
    preferred : Boolean
    validFor : TimePeriod
    @baseType : String
    @schemaLocation : Uri
    @type : String
}

class MediumCharacteristic  {
    city : String
    contactType : String
    country : String
    emailAddress : String
    faxNumber : String
    href : Uri
    id : String
    phoneNumber : String
    postCode : String
    socialNetworkId : String
    stateOrProvince : String
    street1 : String
    street2 : String
    @baseType : String
    @schemaLocation : Uri
    @type : String
}

class BillingAccountRef  <<Ref>> {
    href : String
    id : String [1]
    name : String
    ratingType : String
    @baseType : String
    @referredType : String
    @schemaLocation : Uri
    @type : String
}

class Authorization  {
    givenDate : DateTime
    href : Uri
    id : String
    name : String
    requestedDate : DateTime
    signatureRepresentation : String
    state : String
    @baseType : String
    @schemaLocation : Uri
    @type : String
}

class RelatedParty  {
    href : Uri
    id : String [1]
    name : String
    role : String
    @baseType : String
    @referredType : String [1]
    @schemaLocation : Uri
    @type : String
}

class QuoteStateType <<Enumeration>> {
    rejected
    pending
    inProgress
    cancelled
    approved
    accepted
}

class AgreementRef  <<Ref>> {
    href : Uri
    id : String [1]
    name : String
    @baseType : String
    @referredType : String
    @schemaLocation : Uri
    @type : String
}

class ProductOfferingQualificationRef  <<Ref>> {
    href : Uri
    id : String [1]
    name : String
    @baseType : String
    @referredType : String
    @schemaLocation : Uri
    @type : String
}

class QuotePrice  {
    description : String
    href : Uri
    id : String
    name : String
    priceType : String
    recurringChargePeriod : String
    unitOfMeasure : String
    @baseType : String
    @schemaLocation : Uri
    @type : String
}

class ProductOfferingPriceRef  <<Ref>> {
    href : Uri
    id : String [1]
    name : String
    @baseType : String
    @referredType : String
    @schemaLocation : Uri
    @type : String
}

class PriceAlteration  {
    applicationDuration : Integer
    description : String
    href : Uri
    id : String
    name : String
    priceType : String [1]
    priority : Integer
    recurringChargePeriod : String
    unitOfMeasure : String
    @baseType : String
    @schemaLocation : Uri
    @type : String
}

class Price  {
    dutyFreeAmount : Money
    href : Uri
    id : String
    percentage : Float
    taxIncludedAmount : Money
    taxRate : Float
    @baseType : String
    @schemaLocation : Uri
    @type : String
}

class QuoteItem  {
    action : String
    href : Uri
    id : String
    quantity : Integer
    state : String
    @baseType : String
    @schemaLocation : Uri
    @type : String
}

class ProductRefOrValue  {
    description : String
    href : String
    id : String
    isBundle : Boolean
    isCustomerVisible : Boolean
    name : String
    orderDate : DateTime
    productSerialNumber : String
    startDate : DateTime
    status : ProductStatusType
    terminationDate : DateTime
    @baseType : String
    @referredType : String
    @schemaLocation : Uri
    @type : String
}

class ProductSpecificationRef  <<Ref>> {
    href : Uri
    id : String [1]
    name : String
    version : String
    @baseType : String
    @referredType : String
    @schemaLocation : Uri
    @type : String
}

class TargetProductSchema  {
    @schemaLocation : Uri [1]
    @type : String [1]
}

class Characteristic  {
    id : String
    name : String [1]
    value : Any [1]
    valueType : String
    @baseType : String
    @schemaLocation : Uri
    @type : String
}

class CharacteristicRelationship  <<Ref>> {
    href : Uri
    id : String
    relationshipType : String
    @baseType : String
    @schemaLocation : Uri
    @type : String
}

class RelatedProductOrderItem  {
    href : Uri
    id : String
    orderItemAction : String
    orderItemId : String [1]
    productOrderHref : String
    productOrderId : String [1]
    role : String
    @baseType : String
    @referredType : String
    @schemaLocation : Uri
    @type : String
}

class ServiceRef  <<Ref>> {
    href : Uri
    id : String [1]
    name : String
    @baseType : String
    @referredType : String
    @schemaLocation : Uri
    @type : String
}

class ResourceRef  <<Ref>> {
    href : Uri
    id : String [1]
    name : String
    @baseType : String
    @referredType : String
    @schemaLocation : Uri
    @type : String
}

class RelatedPlaceRefOrValue  {
    href : String
    id : String
    name : String
    role : String [1]
    @baseType : String
    @referredType : String
    @schemaLocation : Uri
    @type : String
}

class AgreementItemRef  <<Ref>> {
    agreementItemId : String
    href : Uri
    id : String [1]
    name : String
    @baseType : String
    @referredType : String
    @schemaLocation : Uri
    @type : String
}

class ProductOfferingRef  <<Ref>> {
    href : Uri
    id : String [1]
    name : String
    @baseType : String
    @referredType : String
    @schemaLocation : Uri
    @type : String
}

class ProductTerm  {
    description : String
    duration : Quantity
    href : Uri
    id : String
    name : String
    validFor : TimePeriod
    @baseType : String
    @schemaLocation : Uri
    @type : String
}

class ProductRelationship  <<Ref>> {
    href : Uri
    id : String
    relationshipType : String [1]
    @baseType : String
    @schemaLocation : Uri
    @type : String
}

class ProductPrice  {
    description : String
    href : Uri
    id : String
    name : String
    priceType : String [1]
    recurringChargePeriod : String
    unitOfMeasure : String
    @baseType : String
    @schemaLocation : Uri
    @type : String
}

class ProductStatusType <<Enumeration>> {
    created
    pendingActive
    cancelled
    active
    pendingTerminate
    terminated
    suspended
    aborted
}

class AppointmentRef  <<Ref>> {
    description : String
    href : String
    id : String [1]
    @baseType : String
    @referredType : String
    @schemaLocation : Uri
    @type : String
}

class ProductOfferingQualificationItemRef  <<Ref>> {
    href : Uri
    id : String [1]
    productOfferingQualificationHref : String
    productOfferingQualificationId : String [1]
    productOfferingQualificationName : String
    @baseType : String
    @referredType : String
    @schemaLocation : Uri
    @type : String
}

class AttachmentRefOrValue  {
    attachmentType : String
    content : string/base64
    description : String
    href : Uri
    id : String
    mimeType : String
    name : String
    size : Quantity
    url : Uri
    validFor : TimePeriod
    @baseType : String
    @referredType : String
    @schemaLocation : Uri
    @type : String
}

class QuoteItemRelationship  <<Ref>> {
    href : Uri
    id : String
    relationshipType : String
    @baseType : String
    @schemaLocation : Uri
    @type : String
}

Quote *-right-> "1..*" QuoteItem : quoteItem

Note "0..*" <--* Quote : note

Note "0..*" <--* QuoteItem : note

QuoteItem *-->  "0..*" Authorization : quoteItemAuthorization

Quote *-->  "0..*" Authorization : authorization

QuoteStateType <-left[hidden]- Quote

Quote *-->  "0..*" RelatedParty : relatedParty

RelatedParty -right[hidden]-> Authorization

Quote *-->  "0..*" BillingAccountRef : billingAccount

BillingAccountRef -right[hidden]-> RelatedParty

Quote *-->  "0..*" QuotePrice : quoteTotalPrice

QuotePrice -right[hidden]-> BillingAccountRef

RelatedParty "0..*" <--* Authorization : approver

QuotePrice *-->  "0..1" ProductOfferingPriceRef : productOfferingPrice

QuotePrice *-->  "0..1" Price : price

QuotePrice *-->  "0..*" PriceAlteration : priceAlteration

QuoteItem *-right-> "0..*" QuoteItem : quoteItem

BillingAccountRef "0..1" <-left-* ProductRefOrValue : billingAccount

QuoteItem *-->  "0..1" ProductRefOrValue : product

QuoteItem *-->  "0..*" QuotePrice : quoteItemPrice

QuoteItem *-->  "0..*" RelatedParty : relatedParty

QuoteItem *-->  "0..1" ProductOfferingRef : productOffering

ProductRefOrValue *-right-> "0..*" ProductRefOrValue : product

ProductRefOrValue *-->  "0..1" ProductOfferingRef : productOffering

PriceAlteration "0..*" <-left-* ProductPrice : productPriceAlteration

ProductRefOrValue *-->  "0..*" ProductPrice : productPrice

ProductRefOrValue *-->  "0..*" RelatedParty : relatedParty

ProductRefOrValue -right[hidden]-> ProductStatusType

ProductRefOrValue *-->  "0..*" ProductRelationship : productRelationship

ProductOfferingRef <-left[hidden]- ProductRelationship

ProductOfferingPriceRef "0..1" <-left-* PriceAlteration : productOfferingPrice

PriceAlteration *-->  "1" Price : price

ProductRefOrValue "1" <--* ProductRelationship : product

ProductOfferingPriceRef "0..1" <--* ProductPrice : productOfferingPrice

ProductPrice *-right-> "1" Price : price

BillingAccountRef "0..1" <--* ProductPrice : billingAccount

ProductRefOrValue *-->  "0..*" RelatedPlaceRefOrValue : place

ProductRelationship <-left[hidden]- RelatedPlaceRefOrValue

ProductRefOrValue *-->  "0..*" AgreementItemRef : agreement

RelatedPlaceRefOrValue <-left[hidden]- AgreementItemRef

ProductRefOrValue *-->  "0..*" ProductTerm : productTerm

AgreementItemRef <-left[hidden]- ProductTerm

ProductRefOrValue *-->  "0..*" RelatedProductOrderItem : productOrderItem

ProductTerm <-left[hidden]- RelatedProductOrderItem

ProductRefOrValue *-->  "0..*" ServiceRef : realizingService

RelatedProductOrderItem <-left[hidden]- ServiceRef

ProductRefOrValue *-->  "0..*" ResourceRef : realizingResource

ServiceRef <-left[hidden]- ResourceRef

ProductRefOrValue *-->  "0..1" ProductSpecificationRef : productSpecification

ResourceRef <-left[hidden]- ProductSpecificationRef

ProductRefOrValue *-->  "0..*" Characteristic : productCharacteristic

ProductSpecificationRef <-left[hidden]- Characteristic

AttachmentRefOrValue "0..*" <--* QuoteItem : attachment

AppointmentRef "0..*" <--* QuoteItem : appointment

QuoteItemRelationship "0..*" <--* QuoteItem : quoteItemRelationship

ProductOfferingQualificationItemRef "0..1" <--* QuoteItem : productOfferingQualificationItem

ContactMedium "0..*" <--* Quote : contactMedium

AgreementRef "0..*" <--* Quote : agreement

ProductOfferingQualificationRef "0..*" <--* Quote : productOfferingQualification

ContactMedium *-right-> "0..1" MediumCharacteristic : characteristic

ProductSpecificationRef *-->  "0..1" TargetProductSchema : targetProductSchema

Characteristic *-->  "0..*" CharacteristicRelationship : characteristicRelationship

@enduml