@startuml
hide circle
hide methods
hide stereotype
show <<Enumeration>> stereotype
skinparam class {
   BackgroundColor<<Enumeration>> #E6F5F7
   BackgroundColor<<Ref>> #FFFFE0
   BackgroundColor<<Pivot>> #FFFFFFF
   BackgroundColor<<SimpleType>> #E2F0DA
   BackgroundColor #FCF2E3
}

class CheckPermission <<Pivot>> {
    href : Uri
    id : String
    @baseType : String
    @schemaLocation : Uri
    @type : String
}

class PartyRoleRef  <<Ref>> {
    href : String
    id : String [1]
    name : String
    partyId : String
    partyName : String
    @baseType : String
    @referredType : String
    @schemaLocation : Uri
    @type : String
}

class Entitlement  {
    action : String
    function : String
    href : Uri
    id : String
    @baseType : String
    @schemaLocation : Uri
    @type : String
}

class UserinfoRef  <<Ref>> {
    href : Uri
    id : String [1]
    name : String
    @baseType : String
    @referredType : String
    @schemaLocation : Uri
    @type : String
}

class Characteristic  {
    id : String
    name : String [1]
    value : Any [1]
    valueType : String
    @baseType : String
    @schemaLocation : Uri
    @type : String
}

class CharacteristicRelationship  <<Ref>> {
    href : Uri
    id : String
    relationshipType : String
    @baseType : String
    @schemaLocation : Uri
    @type : String
}

class EntityRefOrValue  {
    href : Uri
    id : String
    name : String
    @baseType : String
    @referredType : String
    @schemaLocation : Uri
    @type : String
}

UserinfoRef "0..1" <-left-* CheckPermission : user

CheckPermission *-right-> "0..*" EntityRefOrValue : entity

PartyRoleRef "0..1" <--* CheckPermission : partyRole

CheckPermission *-->  "0..1" Entitlement : entitlement

CheckPermission *-->  "0..*" Characteristic : characteristic

Characteristic *-->  "0..*" CharacteristicRelationship : characteristicRelationship

@enduml