@startuml
hide circle
hide methods
hide stereotype
show <<Enumeration>> stereotype
skinparam class {
   BackgroundColor<<Enumeration>> #E6F5F7
   BackgroundColor<<Ref>> #FFFFE0
   BackgroundColor<<Pivot>> #FFFFFFF
   BackgroundColor<<SimpleType>> #E2F0DA
   BackgroundColor #FCF2E3
}

class DirectDebit <<Pivot>> {
    BIC : String
    accountNumber : String [1]
    accountNumberType : String
    authorizationCode : String
    bank : String [1]
    cancellationDate : DateTime
    description : String
    firstDebitDate : DateTime [1]
    href : Uri
    id : String
    isPreferred : Boolean
    lastDebitDate : DateTime [1]
    mandateCategory : String
    mandateId : String [1]
    mandateStatus : String
    mandateStatusDate : DateTime
    mandateType : String [1]
    name : String [1]
    owner : String [1]
    reference : String
    signature : String
    signatureDate : DateTime
    status : String
    statusDate : DateTime
    statusReason : String
    validFor : TimePeriod
    @baseType : String
    @schemaLocation : Uri
    @type : String [1]
}

class RelatedPlace  {
    href : String
    id : String
    name : String
    role : String
    @baseType : String
    @referredType : String
    @schemaLocation : Uri
    @type : String
}

class AttachmentRefOrValue  {
    attachmentType : String
    content : string/base64
    description : String
    href : Uri
    id : String
    mimeType : String
    name : String
    size : Quantity
    url : Uri
    validFor : TimePeriod
    @baseType : String
    @referredType : String
    @schemaLocation : Uri
    @type : String
}

class RelatedParty  {
    href : Uri
    id : String [1]
    name : String
    role : String
    @baseType : String
    @referredType : String [1]
    @schemaLocation : Uri
    @type : String
}

class AccountRef  <<Ref>> {
    description : String
    href : String
    id : String [1]
    name : String
    @baseType : String
    @referredType : String
    @schemaLocation : Uri
    @type : String
}

DirectDebit *-right-> "0..*" AccountRef : account

AttachmentRefOrValue "0..*" <--* DirectDebit : attachment

DirectDebit *-->  "0..1" RelatedParty : relatedParty

DirectDebit *-->  "0..1" RelatedPlace : relatedPlace

@enduml