@startuml
hide circle
hide methods
hide stereotype
show <<Enumeration>> stereotype
skinparam class {
   BackgroundColor<<Enumeration>> #E6F5F7
   BackgroundColor<<Ref>> #FFFFE0
   BackgroundColor<<Pivot>> #FFFFFFF
   BackgroundColor<<SimpleType>> #E2F0DA
   BackgroundColor #FCF2E3
}

class Refund <<Pivot>> {
    amount : Money
    authorizationCode : String
    correlatorId : String
    description : String
    href : String
    id : String
    name : String
    refundDate : DateTime
    status : String
    statusDate : DateTime
    taxAmount : Money
    totalAmount : Money
    @baseType : String
    @schemaLocation : Uri
    @type : String
}

class ChannelRef  <<Ref>> {
    href : Uri
    id : String [1]
    name : String
    @baseType : String
    @referredType : String
    @schemaLocation : Uri
    @type : String
}

class RelatedParty  {
    href : Uri
    id : String [1]
    name : String
    role : String
    @baseType : String
    @referredType : String [1]
    @schemaLocation : Uri
    @type : String
}

class PaymentMethodRefOrValue  {
    authorizationCode : String
    description : String
    href : Uri
    id : String
    isPreferred : Boolean
    name : String [1]
    status : String
    statusDate : DateTime
    statusReason : String
    validFor : TimePeriod
    @baseType : String
    @referredType : String
    @schemaLocation : Uri
    @type : String [1]
}

class RelatedPlace  {
    href : String
    id : String
    name : String
    role : String
    @baseType : String
    @referredType : String
    @schemaLocation : Uri
    @type : String
}

class AccountRef  <<Ref>> {
    description : String
    href : String
    id : String [1]
    name : String
    @baseType : String
    @referredType : String
    @schemaLocation : Uri
    @type : String
}

class PaymentRef  <<Ref>> {
    href : Uri
    id : String [1]
    name : String
    @baseType : String
    @referredType : String
    @schemaLocation : Uri
    @type : String
}

Refund *-->  "1" AccountRef : account

Refund *-->  "0..1" RelatedParty : requestor

Refund *-->  "1" PaymentMethodRefOrValue : paymentMethod

AccountRef "0..*" <--* PaymentMethodRefOrValue : account

RelatedParty "0..1" <--* PaymentMethodRefOrValue : relatedParty

PaymentRef "0..1" <-left-* Refund : payment

Refund *-right-> "0..1" ChannelRef : channel

PaymentMethodRefOrValue *-->  "0..1" RelatedPlace : relatedPlace

@enduml