@startuml
hide circle
hide methods
hide stereotype
show <<Enumeration>> stereotype
skinparam class {
   BackgroundColor<<Enumeration>> #E6F5F7
   BackgroundColor<<Ref>> #FFFFE0
   BackgroundColor<<Pivot>> #FFFFFFF
   BackgroundColor<<SimpleType>> #E2F0DA
   BackgroundColor #FCF2E3
}

class Appointment <<Pivot>> {
    category : String
    creationDate : DateTime
    description : String
    externalId : String
    href : String
    id : String
    lastUpdate : DateTime
    status : AppointmentStateType
    validFor : TimePeriod [1]
    @baseType : String
    @schemaLocation : Uri
    @type : String
}

class RelatedPlaceRefOrValue  {
    href : String
    id : String
    name : String
    role : String [1]
    @baseType : String
    @referredType : String
    @schemaLocation : Uri
    @type : String
}

class Note  {
    author : String
    date : DateTime
    id : String
    text : String
    @baseType : String
    @schemaLocation : Uri
    @type : String
}

class ContactMedium  {
    href : Uri
    id : String
    mediumType : String
    preferred : Boolean
    validFor : TimePeriod
    @baseType : String
    @schemaLocation : Uri
    @type : String
}

class MediumCharacteristic  {
    city : String
    contactType : String
    country : String
    emailAddress : String
    faxNumber : String
    href : Uri
    id : String
    phoneNumber : String
    postCode : String
    socialNetworkId : String
    stateOrProvince : String
    street1 : String
    street2 : String
    @baseType : String
    @schemaLocation : Uri
    @type : String
}

class RelatedEntity  {
    href : Uri
    id : String [1]
    name : String
    role : String [1]
    @baseType : String
    @referredType : String [1]
    @schemaLocation : Uri
    @type : String
}

class CalendarEventRef  <<Ref>> {
    href : Uri
    id : String [1]
    name : String
    @baseType : String
    @referredType : String
    @schemaLocation : Uri
    @type : String
}

class RelatedParty  {
    href : Uri
    id : String [1]
    name : String
    role : String
    @baseType : String
    @referredType : String [1]
    @schemaLocation : Uri
    @type : String
}

class AttachmentRefOrValue  {
    attachmentType : String
    content : string/base64
    description : String
    href : Uri
    id : String
    mimeType : String
    name : String
    size : Quantity
    url : Uri
    validFor : TimePeriod
    @baseType : String
    @referredType : String
    @schemaLocation : Uri
    @type : String
}

class AppointmentStateType <<Enumeration>> {
    initialized
    confirmed
    cancelled
    completed
    failed
}

Appointment -right[hidden]-> AppointmentStateType

Note "0..*" <-left-* Appointment : note

AttachmentRefOrValue "0..*" <--* Appointment : attachment

RelatedParty "0..*" <--* Appointment : relatedParty

RelatedPlaceRefOrValue "0..1" <--* Appointment : relatedPlace

Appointment *-->  "0..*" RelatedEntity : relatedEntity

Appointment *-->  "0..1" CalendarEventRef : calendarEvent

Appointment *-->  "0..*" ContactMedium : contactMedium

ContactMedium *-->  "0..1" MediumCharacteristic : characteristic

@enduml