@startuml
hide circle
hide methods
hide stereotype
show <<Enumeration>> stereotype
skinparam class {
   BackgroundColor<<Enumeration>> #E6F5F7
   BackgroundColor<<Ref>> #FFFFE0
   BackgroundColor<<Pivot>> #FFFFFFF
   BackgroundColor<<SimpleType>> #E2F0DA
   BackgroundColor #FCF2E3
}

class UsageConsumptionLogicalResourceRef <<Pivot>> {
    href : Uri
    id : String [1]
    name : String
    @baseType : String
    @referredType : String
    @schemaLocation : Uri
    @type : String
}

class ConsumptionSummary  {
    consumptionPeriod : TimePeriod
    counterType : String
    href : Uri
    id : String
    level : String
    value : Quantity
    valueName : String
    @baseType : String
    @schemaLocation : Uri
    @type : String
}

class RelatedParty  {
    href : Uri
    id : String [1]
    name : String
    role : String
    @baseType : String
    @referredType : String [1]
    @schemaLocation : Uri
    @type : String
}

UsageConsumptionLogicalResourceRef *-->  "0..*" ConsumptionSummary : consumptionSummary

ConsumptionSummary *-->  "0..1" RelatedParty : user

@enduml